<svg xmlns="http://www.w3.org/2000/svg" xmlns:xlink="http://www.w3.org/1999/xlink" viewBox="0 0 291.79 292.12"><defs><style>.cls-1{fill:url(#linear-gradient);}.cls-2{fill:url(#linear-gradient-2);}.cls-3{fill:url(#linear-gradient-3);}.cls-4{fill:url(#linear-gradient-4);}.cls-5{fill:url(#linear-gradient-5);}</style><linearGradient id="linear-gradient" x1="311.81" y1="227.09" x2="61.79" y2="105.24" gradientUnits="userSpaceOnUse"><stop offset="0" stop-color="#33b8fe"/><stop offset="0.29" stop-color="#38adfc"/><stop offset="0.8" stop-color="#458ff6"/><stop offset="1" stop-color="#4b82f3"/></linearGradient><linearGradient id="linear-gradient-2" x1="-32.85" y1="81.38" x2="44.69" y2="160.5" gradientUnits="userSpaceOnUse"><stop offset="0" stop-color="#00e9a4"/><stop offset="1" stop-color="#6affd7"/></linearGradient><linearGradient id="linear-gradient-3" x1="153.47" y1="49.56" x2="151.32" y2="34.39" gradientTransform="translate(302.8 43.58) rotate(177.76)" gradientUnits="userSpaceOnUse"><stop offset="0" stop-color="#fff"/><stop offset="1" stop-color="#fff"/></linearGradient><linearGradient id="linear-gradient-4" x1="-31.49" y1="57.5" x2="232.78" y2="168.27" xlink:href="#linear-gradient-2"/><linearGradient id="linear-gradient-5" x1="143.83" y1="295.6" x2="140.87" y2="265.82" gradientTransform="matrix(1, 0, 0, 1, 0, 0)" xlink:href="#linear-gradient-3"/></defs><title>earth</title><g id="Layer_2" data-name="Layer 2"><g id="Layer_2-2" data-name="Layer 2"><g id="Earth"><path class="cls-1" d="M291.79,146.22A146.14,146.14,0,0,1,204.6,279.83a143.87,143.87,0,0,1-22.38,7.73,147,147,0,0,1-72.34.08A143.8,143.8,0,0,1,92.29,282q-6.53-2.58-12.73-5.76A146,146,0,0,1,104.05,6.41a143,143,0,0,1,14.52-3.53A147.21,147.21,0,0,1,145.89.33a145.83,145.83,0,0,1,145.9,145.89Z"/><path class="cls-2" d="M37.81,237.83a44.79,44.79,0,0,1-2,4.13A145.89,145.89,0,0,1,28.43,59.69c7.57,2,12.93,5.1,14.13,9.61,2.62,9.8-17.33,15.25-26.9,34C-5.88,145.57,56.39,193.88,37.81,237.83Z"/><path class="cls-3" d="M103.76,6.09A146.9,146.9,0,0,1,176,3.18a143,143,0,0,1,17.8,5,51.32,51.32,0,0,0-7,5.63,35.08,35.08,0,0,1-3.89,3.42,13.36,13.36,0,0,1-6.16,2.51c-7.86,1-10.75-6.24-20-6.33-3.61,0-2.79,1.06-14.87,4.54-8.28,2.39-12.5,3.56-16.51,3-6.1-.83-10.19-4.36-13.74-7.38A67.17,67.17,0,0,1,103.76,6.09Z"/><path class="cls-4" d="M119.31,29.74c-12.46,8.78-17.8,22.08-28.49,48.66-9.13,22.73-15.14,37.69-8.3,48.66,7.29,11.71,20,4.12,45.09,20.18,12.65,8.1,11.14,11.14,29.67,23.74,14.42,9.79,21.77,12.33,21.37,16.61-.79,8.26-28.84,4.78-38,21.36-6.19,11.23-.19,25.26,1.19,28.49,4.54,10.62,12.52,15.78,28.48,26.11,14.92,9.65,23,14.87,29.67,11.86s5-10.84,10.68-23.73c11.45-26,32.66-27.4,32.05-41.54-.51-11.68-15.4-20.76-26.11-27.3-17-10.39-29.28-10.36-29.37-14.15-.19-7.81,52-1.71,72.09-29.76,14.41-20.11,9.37-53.71-5.93-74.77-8.66-11.91-18.88-17.44-30.86-23.73S154.75,4.77,119.31,29.74Z"/><path class="cls-5" d="M204.6,279.83a143.87,143.87,0,0,1-22.38,7.73,147,147,0,0,1-72.34.08A143.8,143.8,0,0,1,92.29,282q-6.53-2.58-12.73-5.76a90.82,90.82,0,0,1,20.76-6.71c20.53-3.86,28.29,3.61,57,8.3A198,198,0,0,0,204.6,279.83Z"/></g></g></g></svg>