<svg xmlns="http://www.w3.org/2000/svg" viewBox="0 0 955.16 959.13"><defs><style>.cls-1{opacity:0.2;}.cls-2{fill:#ff9851;}</style></defs><title>heatpipe</title><g id="Layer_2" data-name="Layer 2"><g id="Layer_1-2" data-name="Layer 1"><path class="cls-1" d="M875,59.13H25a25,25,0,0,0-25,25v850a25,25,0,0,0,25,25H875a25,25,0,0,0,25-25v-850A25,25,0,0,0,875,59.13Zm-2,854.76a18.27,18.27,0,0,1-18.28,18.28H45.24A18.27,18.27,0,0,1,27,913.89V104.37A18.27,18.27,0,0,1,45.24,86.1H854.76A18.27,18.27,0,0,1,873,104.37Z"/><path class="cls-2" d="M878,54.59H28a25,25,0,0,0-25,25v850a25,25,0,0,0,25,25H878a25,25,0,0,0,25-25v-850A25,25,0,0,0,878,54.59Zm-2,854.76a18.27,18.27,0,0,1-18.28,18.28H48.24A18.27,18.27,0,0,1,30,909.35V99.83A18.27,18.27,0,0,1,48.24,81.56H857.76A18.27,18.27,0,0,1,876,99.83Z"/><path class="cls-1" d="M927.16,4.54h-850a25,25,0,0,0-25,25v850a25,25,0,0,0,25,25h850a25,25,0,0,0,25-25v-850A25,25,0,0,0,927.16,4.54Zm-2,854.76a18.27,18.27,0,0,1-18.28,18.28H97.4A18.27,18.27,0,0,1,79.13,859.3V49.78A18.27,18.27,0,0,1,97.4,31.51H906.92A18.27,18.27,0,0,1,925.2,49.78Z"/><path class="cls-2" d="M930.16,0h-850a25,25,0,0,0-25,25V875a25,25,0,0,0,25,25h850a25,25,0,0,0,25-25V25A25,25,0,0,0,930.16,0Zm-2,854.76A18.27,18.27,0,0,1,909.92,873H100.4a18.27,18.27,0,0,1-18.27-18.28V45.24A18.27,18.27,0,0,1,100.4,27H909.92A18.27,18.27,0,0,1,928.2,45.24Z"/></g></g></svg>