<svg xmlns="http://www.w3.org/2000/svg" viewBox="0 0 275.56 275.56"><defs><style>.cls-1{fill:#716454;stroke:#d65355;stroke-miterlimit:10;stroke-width:12px;}.cls-2{opacity:0.95;}.cls-3{fill:#f7efd8;}</style></defs><title>fortran90</title><g id="Layer_2" data-name="Layer 2"><g id="Layer_1-2" data-name="Layer 1"><rect class="cls-1" x="6" y="6" width="263.56" height="263.56"/><g class="cls-2"><path class="cls-3" d="M40.21,127.3h-9.6V118h9.6v-2.77q0-14.55,6-21.82T64,86.11a47.22,47.22,0,0,1,10.32,1.08,36,36,0,0,1,8.94,3.21v14.35H72.51V98.08a12.46,12.46,0,0,0-3.35-2.14,8.64,8.64,0,0,0-3.29-.69c-2.69,0-4.55,1-5.59,3s-1.55,5.57-1.55,10.73v9H76.06v9.32H58.73v50.5H69.52v9.32H31V177.8h9.22Z"/><path class="cls-3" d="M140.46,143.23a26.46,26.46,0,0,1-9.57,8,28.33,28.33,0,0,1-12.5,2.67q-12.35,0-20.42-8.25T89.9,124.84q0-14.41,9.44-23.83t23.91-9.42q17.22,0,26.84,12.35t9.64,34.5q0,23.81-11,37.41t-30.23,13.6a70.11,70.11,0,0,1-11-1,132.24,132.24,0,0,1-13.37-2.93V169.61h10l.81,7.06a32.26,32.26,0,0,0,6.55,2.58,25.45,25.45,0,0,0,6.61.88q9.78,0,16.09-9.51t6.29-24.24ZM139.9,127q0-11.58-4.74-19t-12.22-7.4a12.4,12.4,0,0,0-10.69,5.51q-3.9,5.51-3.9,15.08,0,10.91,4.12,17.07a12.93,12.93,0,0,0,11.35,6.17,15,15,0,0,0,11.59-4.88C138.4,136.35,139.9,132.17,139.9,127Z"/><path class="cls-3" d="M209.23,189.45q-16,0-25.91-13.51t-9.88-35.29q0-22,9.88-35.52t25.91-13.54q16,0,25.87,13.54T245,140.65q0,21.78-9.88,35.29T209.23,189.45Zm0-9.32q8.09,0,12.1-9.92t4-29.69q0-19.83-4.07-29.72T209,100.91q-8,0-11.95,9.89t-4,29.72q0,19.77,4,29.69T209.2,180.13Z"/></g><text/></g></g></svg>