<svg id="Layer_1" data-name="Layer 1" xmlns="http://www.w3.org/2000/svg" viewBox="0 0 1920 1080" width="1920px" height="1080px"><defs><style>.cls-1{fill:#0c0015;stroke:#000;stroke-miterlimit:10;}.cls-2{opacity:0.1;}.cls-3{fill:none;}.cls-4{fill:#fff;}.cls-5{opacity:0.2;}.cls-6{opacity:0.4;}</style></defs><title>space</title><rect class="cls-1" width="1920" height="1080"/><g class="cls-2"><rect class="cls-3" x="1672.25" y="519.46" width="3.03" height="3.03"/><circle class="cls-4" cx="1673.76" cy="520.97" r="1.51"/></g><g class="cls-2"><rect class="cls-3" x="1568.49" y="566.83" width="5.4" height="5.4"/><circle class="cls-4" cx="1571.19" cy="569.53" r="2.7"/></g><g class="cls-2"><rect class="cls-3" x="1765.72" y="992.81" width="4.48" height="4.48"/><circle class="cls-4" cx="1767.96" cy="995.05" r="2.24"/></g><g class="cls-2"><rect class="cls-3" x="1684.81" y="878.66" width="7.42" height="7.42"/><circle class="cls-4" cx="1688.52" cy="882.37" r="3.71"/></g><g class="cls-2"><rect class="cls-3" x="1753.39" y="885.96" width="7.44" height="7.44"/><circle class="cls-4" cx="1757.11" cy="889.68" r="3.72"/></g><g class="cls-2"><rect class="cls-3" x="1776.68" y="305.69" width="6.92" height="6.92"/><circle class="cls-4" cx="1780.13" cy="309.15" r="3.46"/></g><g class="cls-2"><rect class="cls-3" x="1481.92" y="436.76" width="6.48" height="6.48"/><circle class="cls-4" cx="1485.16" cy="440" r="3.24"/></g><g class="cls-2"><rect class="cls-3" x="1036.92" y="535.16" width="3.82" height="3.82"/><circle class="cls-4" cx="1038.83" cy="537.07" r="1.91"/></g><g class="cls-2"><rect class="cls-3" x="677.08" y="579.22" width="7.16" height="7.16"/><circle class="cls-4" cx="680.66" cy="582.8" r="3.58"/></g><g class="cls-2"><rect class="cls-3" x="955.18" y="728.74" width="5.25" height="5.25"/><circle class="cls-4" cx="957.8" cy="731.36" r="2.63"/></g><g class="cls-2"><rect class="cls-3" x="1018.73" y="580.7" width="7.81" height="7.81"/><circle class="cls-4" cx="1022.63" cy="584.6" r="3.9"/></g><g class="cls-2"><rect class="cls-3" x="1129.01" y="83.18" width="4.38" height="4.38"/><circle class="cls-4" cx="1131.2" cy="85.37" r="2.19"/></g><g class="cls-2"><rect class="cls-3" x="842.92" y="357.97" width="4.75" height="4.75"/><circle class="cls-4" cx="845.29" cy="360.35" r="2.38"/></g><g class="cls-2"><rect class="cls-3" x="781.24" y="381.88" width="8.59" height="8.59"/><circle class="cls-4" cx="785.54" cy="386.17" r="4.3"/></g><g class="cls-2"><rect class="cls-3" x="807.77" y="123.81" width="4.48" height="4.48"/><circle class="cls-4" cx="810.01" cy="126.05" r="2.24"/></g><g class="cls-2"><rect class="cls-3" x="386.58" y="50.55" width="5.49" height="5.49"/><circle class="cls-4" cx="389.33" cy="53.3" r="2.75"/></g><g class="cls-2"><rect class="cls-3" x="598.91" y="525.55" width="7.95" height="7.95"/><circle class="cls-4" cx="602.88" cy="529.52" r="3.97"/></g><g class="cls-2"><rect class="cls-3" x="575.31" y="218.67" width="4.83" height="4.83"/><circle class="cls-4" cx="577.73" cy="221.09" r="2.42"/></g><g class="cls-2"><rect class="cls-3" x="287.89" y="376.09" width="3.6" height="3.6"/><circle class="cls-4" cx="289.69" cy="377.89" r="1.8"/></g><g class="cls-2"><rect class="cls-3" x="207" y="233.89" width="5.78" height="5.78"/><circle class="cls-4" cx="209.9" cy="236.78" r="2.89"/></g><g class="cls-2"><rect class="cls-3" x="153.63" y="281.67" width="3.07" height="3.07"/><circle class="cls-4" cx="155.16" cy="283.2" r="1.53"/></g><g class="cls-2"><rect class="cls-3" x="135.18" y="219.86" width="3.04" height="3.04"/><circle class="cls-4" cx="136.7" cy="221.38" r="1.52"/></g><g class="cls-2"><rect class="cls-3" x="353.32" y="413.07" width="7.44" height="7.44"/><circle class="cls-4" cx="357.03" cy="416.78" r="3.72"/></g><rect class="cls-3" x="937.26" y="403.88" width="8.53" height="8.53"/><circle class="cls-4" cx="941.53" cy="408.15" r="4.26"/><rect class="cls-3" x="1097.93" y="557.93" width="4.39" height="4.39"/><circle class="cls-4" cx="1100.13" cy="560.12" r="2.19"/><rect class="cls-3" x="1186.27" y="830.21" width="5.19" height="5.19"/><circle class="cls-4" cx="1188.87" cy="832.81" r="2.6"/><rect class="cls-3" x="1487.94" y="555.06" width="6.18" height="6.18"/><circle class="cls-4" cx="1491.03" cy="558.15" r="3.09"/><rect class="cls-3" x="1348.53" y="498.36" width="6.91" height="6.91"/><circle class="cls-4" cx="1351.98" cy="501.81" r="3.45"/><rect class="cls-3" x="1190.6" y="336.65" width="7.03" height="7.03"/><circle class="cls-4" cx="1194.11" cy="340.16" r="3.52"/><rect class="cls-3" x="891.49" y="277.11" width="8.45" height="8.45"/><circle class="cls-4" cx="895.72" cy="281.34" r="4.23"/><rect class="cls-3" x="519.33" y="377.62" width="3.91" height="3.91"/><circle class="cls-4" cx="521.28" cy="379.57" r="1.95"/><rect class="cls-3" x="311.47" y="761.57" width="5.08" height="5.08"/><circle class="cls-4" cx="314.01" cy="764.11" r="2.54"/><rect class="cls-3" x="539.38" y="787.17" width="6.8" height="6.8"/><circle class="cls-4" cx="542.78" cy="790.57" r="3.4"/><rect class="cls-3" x="587.87" y="858.88" width="7.66" height="7.66"/><circle class="cls-4" cx="591.7" cy="862.71" r="3.83"/><rect class="cls-3" x="858" y="656.12" width="4.99" height="4.99"/><circle class="cls-4" cx="860.49" cy="658.61" r="2.49"/><rect class="cls-3" x="711.87" y="498.06" width="5.89" height="5.89"/><circle class="cls-4" cx="714.82" cy="501.01" r="2.95"/><rect class="cls-3" x="595.64" y="410.28" width="6.09" height="6.09"/><circle class="cls-4" cx="598.69" cy="413.32" r="3.04"/><rect class="cls-3" x="715" y="564.7" width="4.01" height="4.01" transform="translate(-31.86 42.83) rotate(-3.35)"/><circle class="cls-4" cx="717" cy="566.71" r="2.01"/><rect class="cls-3" x="36.47" y="1056.86" width="6.69" height="6.69"/><circle class="cls-4" cx="39.81" cy="1060.21" r="3.34"/><rect class="cls-3" x="263.59" y="849.02" width="7.37" height="7.37"/><circle class="cls-4" cx="267.28" cy="852.71" r="3.68"/><rect class="cls-3" x="271.42" y="753.38" width="6.26" height="6.26"/><circle class="cls-4" cx="274.55" cy="756.51" r="3.13"/><rect class="cls-3" x="248.07" y="703.09" width="4.95" height="4.95"/><circle class="cls-4" cx="250.54" cy="705.57" r="2.47"/><g class="cls-5"><rect class="cls-3" x="1477.91" y="156.5" width="6.36" height="6.36"/><circle class="cls-4" cx="1481.09" cy="159.68" r="3.18"/></g><g class="cls-5"><rect class="cls-3" x="1580.27" y="382.06" width="7.89" height="7.89"/><circle class="cls-4" cx="1584.22" cy="386.01" r="3.95"/></g><g class="cls-5"><rect class="cls-3" x="1386.71" y="668.91" width="8.59" height="8.59"/><circle class="cls-4" cx="1391.01" cy="673.21" r="4.29"/></g><g class="cls-5"><rect class="cls-3" x="1423.58" y="729.8" width="4.58" height="4.58"/><circle class="cls-4" cx="1425.87" cy="732.08" r="2.29"/></g><g class="cls-5"><rect class="cls-3" x="1336.56" y="900.85" width="4.21" height="4.21"/><circle class="cls-4" cx="1338.67" cy="902.95" r="2.1"/></g><g class="cls-5"><rect class="cls-3" x="1511.92" y="984.93" width="5.34" height="5.34"/><circle class="cls-4" cx="1514.59" cy="987.6" r="2.67"/></g><g class="cls-5"><rect class="cls-3" x="1682.16" y="932.34" width="3.31" height="3.31"/><circle class="cls-4" cx="1683.81" cy="933.99" r="1.66"/></g><g class="cls-5"><rect class="cls-3" x="1587.51" y="516.49" width="6.73" height="6.73"/><circle class="cls-4" cx="1590.88" cy="519.86" r="3.37"/></g><g class="cls-5"><rect class="cls-3" x="1575.35" y="393.27" width="3.1" height="3.1"/><circle class="cls-4" cx="1576.9" cy="394.82" r="1.55"/></g><g class="cls-5"><rect class="cls-3" x="1586.88" y="1.13" width="8.59" height="8.59"/><circle class="cls-4" cx="1591.18" cy="5.42" r="4.29"/></g><g class="cls-5"><rect class="cls-3" x="1441.58" y="255.08" width="3.98" height="3.98"/><circle class="cls-4" cx="1443.57" cy="257.07" r="1.99"/></g><g class="cls-5"><rect class="cls-3" x="863.48" y="213.55" width="3.31" height="3.31"/><circle class="cls-4" cx="865.14" cy="215.21" r="1.65"/></g><g class="cls-5"><rect class="cls-3" x="736.97" y="464.3" width="7.52" height="7.52"/><circle class="cls-4" cx="740.73" cy="468.06" r="3.76"/></g><g class="cls-5"><rect class="cls-3" x="726.34" y="802.08" width="5.44" height="5.44"/><circle class="cls-4" cx="729.06" cy="804.8" r="2.72"/></g><g class="cls-5"><rect class="cls-3" x="746.59" y="922.01" width="4.39" height="4.39"/><circle class="cls-4" cx="748.78" cy="924.2" r="2.2"/></g><g class="cls-5"><rect class="cls-3" x="964.71" y="809.31" width="3.73" height="3.73"/><circle class="cls-4" cx="966.57" cy="811.18" r="1.87"/></g><g class="cls-5"><rect class="cls-3" x="893.06" y="816.41" width="7.5" height="7.5"/><circle class="cls-4" cx="896.8" cy="820.16" r="3.75"/></g><g class="cls-5"><rect class="cls-3" x="703.66" y="753.59" width="6.88" height="6.88"/><circle class="cls-4" cx="707.1" cy="757.03" r="3.44"/></g><g class="cls-5"><rect class="cls-3" x="924.4" y="650.94" width="3.67" height="3.67"/><circle class="cls-4" cx="926.24" cy="652.78" r="1.84"/></g><g class="cls-5"><rect class="cls-3" x="960.4" y="265.73" width="3.32" height="3.32"/><circle class="cls-4" cx="962.06" cy="267.39" r="1.66"/></g><g class="cls-5"><rect class="cls-3" x="688.53" y="11.64" width="6.64" height="6.64"/><circle class="cls-4" cx="691.85" cy="14.96" r="3.32"/></g><g class="cls-5"><rect class="cls-3" x="100.85" y="49.94" width="6.2" height="6.2"/><circle class="cls-4" cx="103.95" cy="53.04" r="3.1"/></g><g class="cls-5"><rect class="cls-3" x="1116.27" y="699.13" width="4.92" height="4.92" transform="translate(-39.05 66.51) rotate(-3.35)"/><circle class="cls-4" cx="1118.74" cy="701.59" r="2.46"/></g><g class="cls-5"><rect class="cls-3" x="14.07" y="730.4" width="4.39" height="4.39"/><circle class="cls-4" cx="16.27" cy="732.6" r="2.19"/></g><g class="cls-5"><rect class="cls-3" x="343.28" y="785.76" width="8.88" height="8.88" transform="translate(-45.54 21.65) rotate(-3.35)"/><circle class="cls-4" cx="347.72" cy="790.2" r="4.44"/></g><g class="cls-5"><rect class="cls-3" x="1375.92" y="1047.83" width="7.78" height="7.78"/><circle class="cls-4" cx="1379.8" cy="1051.71" r="3.89"/></g><g class="cls-6"><rect class="cls-3" x="311.47" y="990.29" width="7.76" height="7.76"/><circle class="cls-4" cx="315.36" cy="994.18" r="3.88"/></g><g class="cls-6"><rect class="cls-3" x="511.89" y="1009.53" width="8.01" height="8.01"/><circle class="cls-4" cx="515.89" cy="1013.53" r="4.01"/></g><g class="cls-6"><rect class="cls-3" x="649.45" y="1051.71" width="7.03" height="7.03"/><circle class="cls-4" cx="652.96" cy="1055.23" r="3.51"/></g><g class="cls-6"><rect class="cls-3" x="1857.04" y="924.45" width="4.42" height="4.42"/><circle class="cls-4" cx="1859.25" cy="926.66" r="2.21"/></g><g class="cls-6"><rect class="cls-3" x="1761.77" y="842.82" width="5.81" height="5.81"/><circle class="cls-4" cx="1764.68" cy="845.72" r="2.9"/></g><g class="cls-6"><rect class="cls-3" x="1870.7" y="807.23" width="8.65" height="8.65"/><circle class="cls-4" cx="1875.02" cy="811.56" r="4.32"/></g><g class="cls-6"><rect class="cls-3" x="1821.02" y="471.16" width="8.32" height="8.32"/><circle class="cls-4" cx="1825.18" cy="475.32" r="4.16"/></g><g class="cls-6"><rect class="cls-3" x="1586.54" y="464.01" width="5.77" height="5.77"/><circle class="cls-4" cx="1589.42" cy="466.9" r="2.88"/></g><g class="cls-6"><rect class="cls-3" x="1527.33" y="444.13" width="5.63" height="5.63"/><circle class="cls-4" cx="1530.15" cy="446.95" r="2.82"/></g><g class="cls-6"><rect class="cls-3" x="1254" y="587.7" width="4.89" height="4.89"/><circle class="cls-4" cx="1256.45" cy="590.15" r="2.45"/></g><g class="cls-6"><rect class="cls-3" x="929.47" y="556.21" width="8.32" height="8.32"/><circle class="cls-4" cx="933.63" cy="560.37" r="4.16"/></g><g class="cls-6"><rect class="cls-3" x="1086.14" y="1000.5" width="7.88" height="7.88"/><circle class="cls-4" cx="1090.08" cy="1004.44" r="3.94"/></g><g class="cls-6"><rect class="cls-3" x="1316.02" y="728.22" width="8.1" height="8.1"/><circle class="cls-4" cx="1320.07" cy="732.27" r="4.05"/></g><g class="cls-6"><rect class="cls-3" x="1444.9" y="549.74" width="3.43" height="3.43"/><circle class="cls-4" cx="1446.61" cy="551.45" r="1.71"/></g><g class="cls-6"><rect class="cls-3" x="1678.2" y="640.85" width="8.74" height="8.74"/><circle class="cls-4" cx="1682.56" cy="645.22" r="4.37"/></g><g class="cls-6"><rect class="cls-3" x="1785.1" y="313.71" width="4.1" height="4.1"/><circle class="cls-4" cx="1787.15" cy="315.76" r="2.05"/></g><g class="cls-6"><rect class="cls-3" x="1379.8" y="279.4" width="8.05" height="8.05"/><circle class="cls-4" cx="1383.83" cy="283.42" r="4.02"/></g><g class="cls-6"><rect class="cls-3" x="1179.69" y="284.42" width="8.23" height="8.23"/><circle class="cls-4" cx="1183.81" cy="288.53" r="4.11"/></g><g class="cls-6"><rect class="cls-3" x="866.24" y="159.25" width="6.68" height="6.68"/><circle class="cls-4" cx="869.58" cy="162.59" r="3.34"/></g><g class="cls-6"><rect class="cls-3" x="515.46" y="129.24" width="4.03" height="4.03"/><circle class="cls-4" cx="517.47" cy="131.25" r="2.02"/></g><g class="cls-6"><rect class="cls-3" x="441.67" y="334.33" width="3.37" height="3.37"/><circle class="cls-4" cx="443.35" cy="336.02" r="1.68"/></g><g class="cls-6"><rect class="cls-3" x="328.96" y="354.55" width="4.05" height="4.05"/><circle class="cls-4" cx="330.98" cy="356.57" r="2.02"/></g><g class="cls-6"><rect class="cls-3" x="242.27" y="336.82" width="4.54" height="4.54"/><circle class="cls-4" cx="244.54" cy="339.09" r="2.27"/></g><g class="cls-6"><rect class="cls-3" x="20.42" y="475.46" width="7.34" height="7.34"/><circle class="cls-4" cx="24.09" cy="479.13" r="3.67"/></g><g class="cls-6"><rect class="cls-3" x="411.51" y="845.25" width="8" height="8"/><circle class="cls-4" cx="415.52" cy="849.25" r="4"/></g><g class="cls-6"><rect class="cls-3" x="527.73" y="902.92" width="7.9" height="7.9"/><circle class="cls-4" cx="531.68" cy="906.87" r="3.95"/></g><g class="cls-6"><rect class="cls-3" x="609.11" y="616.52" width="3.45" height="3.45"/><circle class="cls-4" cx="610.84" cy="618.25" r="1.72"/></g><g class="cls-6"><rect class="cls-3" x="939.81" y="438.52" width="5.42" height="5.42"/><circle class="cls-4" cx="942.52" cy="441.23" r="2.71"/></g><g class="cls-6"><rect class="cls-3" x="1036.34" y="467.38" width="7.94" height="7.94"/><circle class="cls-4" cx="1040.32" cy="471.35" r="3.97"/></g><g class="cls-6"><rect class="cls-3" x="1371.78" y="437.76" width="4.45" height="4.45"/><circle class="cls-4" cx="1374.01" cy="439.99" r="2.23"/></g><g class="cls-6"><rect class="cls-3" x="1454.43" y="288.05" width="8.22" height="8.22"/><circle class="cls-4" cx="1458.54" cy="292.16" r="4.11"/></g><g class="cls-6"><rect class="cls-3" x="1529.82" y="103.21" width="5.75" height="5.75"/><circle class="cls-4" cx="1532.69" cy="106.08" r="2.88"/></g><g class="cls-6"><rect class="cls-3" x="1032.51" y="375.8" width="7.42" height="7.42"/><circle class="cls-4" cx="1036.22" cy="379.51" r="3.71"/></g><g class="cls-6"><rect class="cls-3" x="705.26" y="379.2" width="7.16" height="7.16"/><circle class="cls-4" cx="708.84" cy="382.78" r="3.58"/></g><g class="cls-6"><rect class="cls-3" x="609.91" y="93.04" width="3.01" height="3.01"/><circle class="cls-4" cx="611.41" cy="94.54" r="1.5"/></g><g class="cls-6"><rect class="cls-3" x="300.24" y="35.49" width="4.05" height="4.05"/><circle class="cls-4" cx="302.26" cy="37.52" r="2.03"/></g><g class="cls-6"><rect class="cls-3" x="1122.94" y="736.64" width="4.43" height="4.43" transform="translate(-41.22 66.95) rotate(-3.35)"/><circle class="cls-4" cx="1125.15" cy="738.85" r="2.21"/></g><g class="cls-6"><rect class="cls-3" x="1209.82" y="603.49" width="7.37" height="7.37" transform="translate(-33.38 71.88) rotate(-3.35)"/><circle class="cls-4" cx="1213.5" cy="607.17" r="3.69"/></g><g class="cls-6"><rect class="cls-3" x="1188.61" y="565.95" width="5.16" height="5.16" transform="translate(-31.16 70.51) rotate(-3.35)"/><circle class="cls-4" cx="1191.19" cy="568.53" r="2.58"/></g><g class="cls-6"><rect class="cls-3" x="261.29" y="578.07" width="4.23" height="4.23"/><circle class="cls-4" cx="263.4" cy="580.19" r="2.11"/></g><g class="cls-6"><rect class="cls-3" x="466.85" y="679.6" width="5.93" height="5.93"/><circle class="cls-4" cx="469.81" cy="682.57" r="2.97"/></g><g class="cls-6"><rect class="cls-3" x="620.7" y="365.65" width="6.07" height="6.07"/><circle class="cls-4" cx="623.74" cy="368.68" r="3.04"/></g><g class="cls-6"><rect class="cls-3" x="867.86" y="208.03" width="4.38" height="4.38"/><circle class="cls-4" cx="870.05" cy="210.22" r="2.19"/></g><g class="cls-6"><rect class="cls-3" x="537.24" y="100.97" width="4.16" height="4.16"/><circle class="cls-4" cx="539.32" cy="103.05" r="2.08"/></g><g class="cls-6"><rect class="cls-3" x="258.76" y="14.79" width="6.06" height="6.06"/><circle class="cls-4" cx="261.79" cy="17.82" r="3.03"/></g><g class="cls-6"><rect class="cls-3" x="1352.15" y="588.96" width="7.79" height="7.79" transform="translate(-32.3 80.18) rotate(-3.35)"/><circle class="cls-4" cx="1356.04" cy="592.85" r="3.89"/></g></svg>
