<svg xmlns="http://www.w3.org/2000/svg" viewBox="0 0 1865.28 1062.42" width="1865px" height="1062px"><defs><style>.cls-1{opacity:0.1;}.cls-2{fill:none;}.cls-3{fill:#fff;}.cls-4{opacity:0.2;}.cls-5{opacity:0.4;}</style></defs><title>stars</title><g id="Layer_2" data-name="Layer 2"><g id="Layer_1-2" data-name="Layer 1"><g class="cls-1"><rect class="cls-2" x="1658.17" y="518.33" width="3.03" height="3.03"/><circle class="cls-3" cx="1659.69" cy="519.84" r="1.51"/></g><g class="cls-1"><rect class="cls-2" x="1554.42" y="565.7" width="5.4" height="5.4"/><circle class="cls-3" cx="1557.12" cy="568.4" r="2.7"/></g><g class="cls-1"><rect class="cls-2" x="1751.64" y="991.68" width="4.48" height="4.48"/><circle class="cls-3" cx="1753.89" cy="993.92" r="2.24"/></g><g class="cls-1"><rect class="cls-2" x="1670.74" y="877.53" width="7.42" height="7.42"/><circle class="cls-3" cx="1674.45" cy="881.24" r="3.71"/></g><g class="cls-1"><rect class="cls-2" x="1739.32" y="884.83" width="7.44" height="7.44"/><circle class="cls-3" cx="1743.04" cy="888.55" r="3.72"/></g><g class="cls-1"><rect class="cls-2" x="1762.6" y="304.57" width="6.92" height="6.92"/><circle class="cls-3" cx="1766.06" cy="308.02" r="3.46"/></g><g class="cls-1"><rect class="cls-2" x="1467.85" y="435.63" width="6.48" height="6.48"/><circle class="cls-3" cx="1471.09" cy="438.87" r="3.24"/></g><g class="cls-1"><rect class="cls-2" x="1022.85" y="534.03" width="3.82" height="3.82"/><circle class="cls-3" cx="1024.76" cy="535.94" r="1.91"/></g><g class="cls-1"><rect class="cls-2" x="663.01" y="578.09" width="7.16" height="7.16"/><circle class="cls-3" cx="666.59" cy="581.67" r="3.58"/></g><g class="cls-1"><rect class="cls-2" x="941.11" y="727.61" width="5.25" height="5.25"/><circle class="cls-3" cx="943.73" cy="730.23" r="2.63"/></g><g class="cls-1"><rect class="cls-2" x="1004.66" y="579.57" width="7.81" height="7.81"/><circle class="cls-3" cx="1008.56" cy="583.47" r="3.9"/></g><g class="cls-1"><rect class="cls-2" x="1114.94" y="82.05" width="4.38" height="4.38"/><circle class="cls-3" cx="1117.13" cy="84.24" r="2.19"/></g><g class="cls-1"><rect class="cls-2" x="828.85" y="356.84" width="4.75" height="4.75"/><circle class="cls-3" cx="831.22" cy="359.22" r="2.38"/></g><g class="cls-1"><rect class="cls-2" x="767.17" y="380.75" width="8.59" height="8.59"/><circle class="cls-3" cx="771.47" cy="385.04" r="4.3"/></g><g class="cls-1"><rect class="cls-2" x="793.7" y="122.68" width="4.48" height="4.48"/><circle class="cls-3" cx="795.94" cy="124.92" r="2.24"/></g><g class="cls-1"><rect class="cls-2" x="372.51" y="49.42" width="5.49" height="5.49"/><circle class="cls-3" cx="375.25" cy="52.17" r="2.75"/></g><g class="cls-1"><rect class="cls-2" x="584.84" y="524.42" width="7.95" height="7.95"/><circle class="cls-3" cx="588.81" cy="528.39" r="3.97"/></g><g class="cls-1"><rect class="cls-2" x="561.24" y="217.54" width="4.83" height="4.83"/><circle class="cls-3" cx="563.66" cy="219.96" r="2.42"/></g><g class="cls-1"><rect class="cls-2" x="273.82" y="374.96" width="3.6" height="3.6"/><circle class="cls-3" cx="275.62" cy="376.76" r="1.8"/></g><g class="cls-1"><rect class="cls-2" x="192.93" y="232.76" width="5.78" height="5.78"/><circle class="cls-3" cx="195.82" cy="235.65" r="2.89"/></g><g class="cls-1"><rect class="cls-2" x="139.56" y="280.54" width="3.07" height="3.07"/><circle class="cls-3" cx="141.09" cy="282.07" r="1.53"/></g><g class="cls-1"><rect class="cls-2" x="121.11" y="218.73" width="3.04" height="3.04"/><circle class="cls-3" cx="122.63" cy="220.25" r="1.52"/></g><g class="cls-1"><rect class="cls-2" x="339.24" y="411.94" width="7.44" height="7.44"/><circle class="cls-3" cx="342.96" cy="415.66" r="3.72"/></g><rect class="cls-2" x="923.19" y="402.75" width="8.53" height="8.53"/><circle class="cls-3" cx="927.46" cy="407.02" r="4.26"/><rect class="cls-2" x="1083.86" y="556.8" width="4.39" height="4.39"/><circle class="cls-3" cx="1086.06" cy="558.99" r="2.19"/><rect class="cls-2" x="1172.2" y="829.08" width="5.19" height="5.19"/><circle class="cls-3" cx="1174.8" cy="831.68" r="2.6"/><rect class="cls-2" x="1473.87" y="553.93" width="6.18" height="6.18"/><circle class="cls-3" cx="1476.96" cy="557.02" r="3.09"/><rect class="cls-2" x="1334.46" y="497.23" width="6.91" height="6.91"/><circle class="cls-3" cx="1337.91" cy="500.68" r="3.45"/><rect class="cls-2" x="1176.53" y="335.52" width="7.03" height="7.03"/><circle class="cls-3" cx="1180.04" cy="339.03" r="3.52"/><rect class="cls-2" x="877.42" y="275.98" width="8.45" height="8.45"/><circle class="cls-3" cx="881.65" cy="280.21" r="4.23"/><rect class="cls-2" x="505.26" y="376.49" width="3.91" height="3.91"/><circle class="cls-3" cx="507.21" cy="378.44" r="1.95"/><rect class="cls-2" x="297.4" y="760.45" width="5.08" height="5.08"/><circle class="cls-3" cx="299.94" cy="762.98" r="2.54"/><rect class="cls-2" x="525.31" y="786.04" width="6.8" height="6.8"/><circle class="cls-3" cx="528.71" cy="789.44" r="3.4"/><rect class="cls-2" x="573.8" y="857.75" width="7.66" height="7.66"/><circle class="cls-3" cx="577.63" cy="861.58" r="3.83"/><rect class="cls-2" x="843.93" y="654.99" width="4.99" height="4.99"/><circle class="cls-3" cx="846.42" cy="657.48" r="2.49"/><rect class="cls-2" x="697.8" y="496.93" width="5.89" height="5.89"/><circle class="cls-3" cx="700.74" cy="499.88" r="2.95"/><rect class="cls-2" x="581.57" y="409.15" width="6.09" height="6.09"/><circle class="cls-3" cx="584.62" cy="412.19" r="3.04"/><rect class="cls-2" x="700.92" y="563.57" width="4.01" height="4.01" transform="translate(-31.82 42) rotate(-3.35)"/><circle class="cls-3" cx="702.93" cy="565.58" r="2.01"/><rect class="cls-2" x="22.4" y="1055.74" width="6.69" height="6.69"/><circle class="cls-3" cx="25.74" cy="1059.08" r="3.34"/><rect class="cls-2" x="249.52" y="847.89" width="7.37" height="7.37"/><circle class="cls-3" cx="253.2" cy="851.58" r="3.68"/><rect class="cls-2" x="257.35" y="752.25" width="6.26" height="6.26"/><circle class="cls-3" cx="260.48" cy="755.38" r="3.13"/><rect class="cls-2" x="233.99" y="701.96" width="4.95" height="4.95"/><circle class="cls-3" cx="236.47" cy="704.44" r="2.47"/><g class="cls-4"><rect class="cls-2" x="1463.84" y="155.37" width="6.36" height="6.36"/><circle class="cls-3" cx="1467.02" cy="158.55" r="3.18"/></g><g class="cls-4"><rect class="cls-2" x="1566.2" y="380.93" width="7.89" height="7.89"/><circle class="cls-3" cx="1570.15" cy="384.88" r="3.95"/></g><g class="cls-4"><rect class="cls-2" x="1372.64" y="667.78" width="8.59" height="8.59"/><circle class="cls-3" cx="1376.94" cy="672.08" r="4.29"/></g><g class="cls-4"><rect class="cls-2" x="1409.51" y="728.67" width="4.58" height="4.58"/><circle class="cls-3" cx="1411.8" cy="730.96" r="2.29"/></g><g class="cls-4"><rect class="cls-2" x="1322.49" y="899.72" width="4.21" height="4.21"/><circle class="cls-3" cx="1324.6" cy="901.82" r="2.1"/></g><g class="cls-4"><rect class="cls-2" x="1497.85" y="983.8" width="5.34" height="5.34"/><circle class="cls-3" cx="1500.52" cy="986.47" r="2.67"/></g><g class="cls-4"><rect class="cls-2" x="1668.09" y="931.21" width="3.31" height="3.31"/><circle class="cls-3" cx="1669.74" cy="932.87" r="1.66"/></g><g class="cls-4"><rect class="cls-2" x="1573.44" y="515.36" width="6.73" height="6.73"/><circle class="cls-3" cx="1576.81" cy="518.73" r="3.37"/></g><g class="cls-4"><rect class="cls-2" x="1561.28" y="392.14" width="3.1" height="3.1"/><circle class="cls-3" cx="1562.83" cy="393.69" r="1.55"/></g><g class="cls-4"><rect class="cls-2" x="1572.81" width="8.59" height="8.59"/><circle class="cls-3" cx="1577.11" cy="4.29" r="4.29"/></g><g class="cls-4"><rect class="cls-2" x="1427.51" y="253.95" width="3.98" height="3.98"/><circle class="cls-3" cx="1429.5" cy="255.94" r="1.99"/></g><g class="cls-4"><rect class="cls-2" x="849.41" y="212.42" width="3.31" height="3.31"/><circle class="cls-3" cx="851.07" cy="214.08" r="1.65"/></g><g class="cls-4"><rect class="cls-2" x="722.9" y="463.18" width="7.52" height="7.52"/><circle class="cls-3" cx="726.65" cy="466.93" r="3.76"/></g><g class="cls-4"><rect class="cls-2" x="712.27" y="800.95" width="5.44" height="5.44"/><circle class="cls-3" cx="714.99" cy="803.67" r="2.72"/></g><g class="cls-4"><rect class="cls-2" x="732.51" y="920.88" width="4.39" height="4.39"/><circle class="cls-3" cx="734.71" cy="923.07" r="2.2"/></g><g class="cls-4"><rect class="cls-2" x="950.63" y="808.18" width="3.73" height="3.73"/><circle class="cls-3" cx="952.5" cy="810.05" r="1.87"/></g><g class="cls-4"><rect class="cls-2" x="878.98" y="815.28" width="7.5" height="7.5"/><circle class="cls-3" cx="882.73" cy="819.03" r="3.75"/></g><g class="cls-4"><rect class="cls-2" x="689.58" y="752.46" width="6.88" height="6.88"/><circle class="cls-3" cx="693.02" cy="755.9" r="3.44"/></g><g class="cls-4"><rect class="cls-2" x="910.33" y="649.81" width="3.67" height="3.67"/><circle class="cls-3" cx="912.17" cy="651.65" r="1.84"/></g><g class="cls-4"><rect class="cls-2" x="946.33" y="264.6" width="3.32" height="3.32"/><circle class="cls-3" cx="947.99" cy="266.26" r="1.66"/></g><g class="cls-4"><rect class="cls-2" x="674.46" y="10.51" width="6.64" height="6.64"/><circle class="cls-3" cx="677.78" cy="13.83" r="3.32"/></g><g class="cls-4"><rect class="cls-2" x="86.78" y="48.81" width="6.2" height="6.2"/><circle class="cls-3" cx="89.88" cy="51.91" r="3.1"/></g><g class="cls-4"><rect class="cls-2" x="1102.2" y="698" width="4.92" height="4.92" transform="translate(-39.01 65.69) rotate(-3.35)"/><circle class="cls-3" cx="1104.66" cy="700.46" r="2.46"/></g><g class="cls-4"><rect class="cls-2" y="729.27" width="4.39" height="4.39"/><circle class="cls-3" cx="2.19" cy="731.47" r="2.19"/></g><g class="cls-4"><rect class="cls-2" x="329.21" y="784.63" width="8.88" height="8.88" transform="translate(-45.5 20.82) rotate(-3.35)"/><circle class="cls-3" cx="333.65" cy="789.07" r="4.44"/></g><g class="cls-4"><rect class="cls-2" x="1361.84" y="1046.7" width="7.78" height="7.78"/><circle class="cls-3" cx="1365.73" cy="1050.58" r="3.89"/></g><g class="cls-5"><rect class="cls-2" x="297.4" y="989.16" width="7.76" height="7.76"/><circle class="cls-3" cx="301.28" cy="993.05" r="3.88"/></g><g class="cls-5"><rect class="cls-2" x="497.82" y="1008.4" width="8.01" height="8.01"/><circle class="cls-3" cx="501.82" cy="1012.4" r="4.01"/></g><g class="cls-5"><rect class="cls-2" x="635.38" y="1050.58" width="7.03" height="7.03"/><circle class="cls-3" cx="638.89" cy="1054.1" r="3.51"/></g><g class="cls-5"><rect class="cls-2" x="1842.97" y="923.32" width="4.42" height="4.42"/><circle class="cls-3" cx="1845.18" cy="925.53" r="2.21"/></g><g class="cls-5"><rect class="cls-2" x="1747.7" y="841.69" width="5.81" height="5.81"/><circle class="cls-3" cx="1750.61" cy="844.59" r="2.9"/></g><g class="cls-5"><rect class="cls-2" x="1856.63" y="806.1" width="8.65" height="8.65"/><circle class="cls-3" cx="1860.95" cy="810.43" r="4.32"/></g><g class="cls-5"><rect class="cls-2" x="1806.95" y="470.03" width="8.32" height="8.32"/><circle class="cls-3" cx="1811.1" cy="474.19" r="4.16"/></g><g class="cls-5"><rect class="cls-2" x="1572.47" y="462.89" width="5.77" height="5.77"/><circle class="cls-3" cx="1575.35" cy="465.77" r="2.88"/></g><g class="cls-5"><rect class="cls-2" x="1513.26" y="443" width="5.63" height="5.63"/><circle class="cls-3" cx="1516.08" cy="445.82" r="2.82"/></g><g class="cls-5"><rect class="cls-2" x="1239.93" y="586.57" width="4.89" height="4.89"/><circle class="cls-3" cx="1242.38" cy="589.02" r="2.45"/></g><g class="cls-5"><rect class="cls-2" x="915.4" y="555.08" width="8.32" height="8.32"/><circle class="cls-3" cx="919.55" cy="559.24" r="4.16"/></g><g class="cls-5"><rect class="cls-2" x="1072.07" y="999.37" width="7.88" height="7.88"/><circle class="cls-3" cx="1076.01" cy="1003.31" r="3.94"/></g><g class="cls-5"><rect class="cls-2" x="1301.95" y="727.09" width="8.1" height="8.1"/><circle class="cls-3" cx="1306" cy="731.14" r="4.05"/></g><g class="cls-5"><rect class="cls-2" x="1430.83" y="548.61" width="3.43" height="3.43"/><circle class="cls-3" cx="1432.54" cy="550.32" r="1.71"/></g><g class="cls-5"><rect class="cls-2" x="1664.12" y="639.72" width="8.74" height="8.74"/><circle class="cls-3" cx="1668.49" cy="644.09" r="4.37"/></g><g class="cls-5"><rect class="cls-2" x="1771.03" y="312.59" width="4.1" height="4.1"/><circle class="cls-3" cx="1773.08" cy="314.63" r="2.05"/></g><g class="cls-5"><rect class="cls-2" x="1365.73" y="278.27" width="8.05" height="8.05"/><circle class="cls-3" cx="1369.76" cy="282.29" r="4.02"/></g><g class="cls-5"><rect class="cls-2" x="1165.62" y="283.29" width="8.23" height="8.23"/><circle class="cls-3" cx="1169.74" cy="287.41" r="4.11"/></g><g class="cls-5"><rect class="cls-2" x="852.17" y="158.12" width="6.68" height="6.68"/><circle class="cls-3" cx="855.51" cy="161.46" r="3.34"/></g><g class="cls-5"><rect class="cls-2" x="501.38" y="128.11" width="4.03" height="4.03"/><circle class="cls-3" cx="503.4" cy="130.12" r="2.02"/></g><g class="cls-5"><rect class="cls-2" x="427.59" y="333.2" width="3.37" height="3.37"/><circle class="cls-3" cx="429.28" cy="334.89" r="1.68"/></g><g class="cls-5"><rect class="cls-2" x="314.88" y="353.42" width="4.05" height="4.05"/><circle class="cls-3" cx="316.91" cy="355.44" r="2.02"/></g><g class="cls-5"><rect class="cls-2" x="228.2" y="335.69" width="4.54" height="4.54"/><circle class="cls-3" cx="230.47" cy="337.96" r="2.27"/></g><g class="cls-5"><rect class="cls-2" x="6.35" y="474.33" width="7.34" height="7.34"/><circle class="cls-3" cx="10.02" cy="478" r="3.67"/></g><g class="cls-5"><rect class="cls-2" x="397.44" y="844.12" width="8" height="8"/><circle class="cls-3" cx="401.44" cy="848.12" r="4"/></g><g class="cls-5"><rect class="cls-2" x="513.66" y="901.79" width="7.9" height="7.9"/><circle class="cls-3" cx="517.61" cy="905.74" r="3.95"/></g><g class="cls-5"><rect class="cls-2" x="595.04" y="615.39" width="3.45" height="3.45"/><circle class="cls-3" cx="596.77" cy="617.12" r="1.72"/></g><g class="cls-5"><rect class="cls-2" x="925.74" y="437.39" width="5.42" height="5.42"/><circle class="cls-3" cx="928.45" cy="440.1" r="2.71"/></g><g class="cls-5"><rect class="cls-2" x="1022.27" y="466.25" width="7.94" height="7.94"/><circle class="cls-3" cx="1026.24" cy="470.22" r="3.97"/></g><g class="cls-5"><rect class="cls-2" x="1357.71" y="436.64" width="4.45" height="4.45"/><circle class="cls-3" cx="1359.94" cy="438.86" r="2.23"/></g><g class="cls-5"><rect class="cls-2" x="1440.36" y="286.92" width="8.22" height="8.22"/><circle class="cls-3" cx="1444.47" cy="291.03" r="4.11"/></g><g class="cls-5"><rect class="cls-2" x="1515.75" y="102.08" width="5.75" height="5.75"/><circle class="cls-3" cx="1518.62" cy="104.95" r="2.88"/></g><g class="cls-5"><rect class="cls-2" x="1018.44" y="374.67" width="7.42" height="7.42"/><circle class="cls-3" cx="1022.15" cy="378.38" r="3.71"/></g><g class="cls-5"><rect class="cls-2" x="691.19" y="378.07" width="7.16" height="7.16"/><circle class="cls-3" cx="694.77" cy="381.65" r="3.58"/></g><g class="cls-5"><rect class="cls-2" x="595.83" y="91.91" width="3.01" height="3.01"/><circle class="cls-3" cx="597.34" cy="93.41" r="1.5"/></g><g class="cls-5"><rect class="cls-2" x="286.16" y="34.37" width="4.05" height="4.05"/><circle class="cls-3" cx="288.19" cy="36.39" r="2.03"/></g><g class="cls-5"><rect class="cls-2" x="1108.87" y="735.51" width="4.43" height="4.43" transform="translate(-41.17 66.12) rotate(-3.35)"/><circle class="cls-3" cx="1111.08" cy="737.72" r="2.21"/></g><g class="cls-5"><rect class="cls-2" x="1195.74" y="602.36" width="7.37" height="7.37" transform="translate(-33.34 71.06) rotate(-3.35)"/><circle class="cls-3" cx="1199.43" cy="606.04" r="3.69"/></g><g class="cls-5"><rect class="cls-2" x="1174.54" y="564.82" width="5.16" height="5.16" transform="translate(-31.12 69.69) rotate(-3.35)"/><circle class="cls-3" cx="1177.12" cy="567.4" r="2.58"/></g><g class="cls-5"><rect class="cls-2" x="247.21" y="576.94" width="4.23" height="4.23"/><circle class="cls-3" cx="249.33" cy="579.06" r="2.11"/></g><g class="cls-5"><rect class="cls-2" x="452.77" y="678.47" width="5.93" height="5.93"/><circle class="cls-3" cx="455.74" cy="681.44" r="2.97"/></g><g class="cls-5"><rect class="cls-2" x="606.63" y="364.52" width="6.07" height="6.07"/><circle class="cls-3" cx="609.67" cy="367.55" r="3.04"/></g><g class="cls-5"><rect class="cls-2" x="853.79" y="206.9" width="4.38" height="4.38"/><circle class="cls-3" cx="855.98" cy="209.09" r="2.19"/></g><g class="cls-5"><rect class="cls-2" x="523.16" y="99.84" width="4.16" height="4.16"/><circle class="cls-3" cx="525.24" cy="101.92" r="2.08"/></g><g class="cls-5"><rect class="cls-2" x="244.69" y="13.66" width="6.06" height="6.06"/><circle class="cls-3" cx="247.72" cy="16.69" r="3.03"/></g><g class="cls-5"><rect class="cls-2" x="1338.08" y="587.83" width="7.79" height="7.79" transform="translate(-32.26 79.35) rotate(-3.35)"/><circle class="cls-3" cx="1341.97" cy="591.72" r="3.89"/></g></g></g></svg>
