<svg xmlns="http://www.w3.org/2000/svg" viewBox="0 0 1343.5 706.19"><defs><style>.cls-1{stroke:#000;stroke-miterlimit:10;}.cls-2{fill:#e90000;}.cls-3{fill:#fff;}.cls-4{fill:#1e1e1e;}.cls-5{opacity:0.15;}.cls-6{opacity:0.1;}</style></defs><title>fightstick</title><g id="Layer_2" data-name="Layer 2"><g id="Layer_1-2" data-name="Layer 1"><circle class="cls-1" cx="502.35" cy="224.95" r="121.87"/><circle class="cls-2" cx="502.35" cy="224.95" r="95.31"/><circle class="cls-1" cx="442.63" cy="490.19" r="121.88"/><circle class="cls-2" cx="442.63" cy="490.19" r="95.31"/><circle class="cls-1" cx="745.51" cy="211.47" r="121.88"/><circle class="cls-2" cx="745.51" cy="211.47" r="95.31"/><circle class="cls-1" cx="685.79" cy="476.71" r="121.88"/><circle class="cls-2" cx="685.79" cy="476.71" r="95.31"/><circle class="cls-1" cx="983.3" cy="265.01" r="121.88"/><circle class="cls-3" cx="983.3" cy="265.01" r="95.31"/><circle class="cls-1" cx="923.58" cy="530.25" r="121.88"/><circle class="cls-3" cx="923.58" cy="530.25" r="95.31"/><circle class="cls-1" cx="1221.1" cy="318.55" r="121.87"/><circle class="cls-4" cx="1221.1" cy="318.55" r="95.31"/><circle class="cls-1" cx="1161.38" cy="583.79" r="121.87"/><circle class="cls-4" cx="1161.38" cy="583.79" r="95.31"/><circle cx="113.66" cy="291.24" r="113.64"/><circle class="cls-4" cx="113.66" cy="291.24" r="90.6"/><path d="M92.4,143h70.82a0,0,0,0,1,0,0V278.45a35.41,35.41,0,0,1-35.41,35.41h0A35.41,35.41,0,0,1,92.4,278.45V143a0,0,0,0,1,0,0Z" transform="translate(53.29 -22.5) rotate(12.69)"/><path class="cls-5" d="M562.7,298.84a95.32,95.32,0,0,1-134.13-13.36q-2-2.48-3.84-5A95.31,95.31,0,0,0,571.89,160c1.43,1.53,2.82,3.11,4.17,4.76A95.31,95.31,0,0,1,562.7,298.84Z"/><path class="cls-5" d="M503,563.93a95.3,95.3,0,0,1-134.12-13.36q-2-2.48-3.85-5A95.31,95.31,0,0,0,512.2,425c1.43,1.53,2.82,3.11,4.17,4.76A95.31,95.31,0,0,1,503,563.93Z"/><circle class="cls-5" cx="168.11" cy="218.73" r="109.22"/><path class="cls-5" d="M805.89,285.21a95.31,95.31,0,0,1-134.13-13.36c-1.35-1.65-2.63-3.32-3.85-5a95.31,95.31,0,0,0,147.16-120.5q2.16,2.3,4.18,4.77A95.31,95.31,0,0,1,805.89,285.21Z"/><path class="cls-5" d="M745.93,551.51A95.31,95.31,0,0,1,611.8,538.15c-1.35-1.65-2.63-3.32-3.85-5a95.31,95.31,0,0,0,147.17-120.5q2.14,2.29,4.17,4.77A95.3,95.3,0,0,1,745.93,551.51Z"/><path class="cls-5" d="M1043.44,339.82a95.3,95.3,0,0,1-134.12-13.36q-2-2.47-3.85-5a95.31,95.31,0,0,0,147.16-120.5c1.43,1.53,2.82,3.11,4.17,4.76A95.31,95.31,0,0,1,1043.44,339.82Z"/><path class="cls-5" d="M1221.52,658.59a95.3,95.3,0,0,1-134.12-13.36c-1.35-1.64-2.64-3.32-3.85-5a95.31,95.31,0,0,0,147.16-120.5q2.14,2.29,4.17,4.77A95.3,95.3,0,0,1,1221.52,658.59Z"/><path class="cls-5" d="M1281.48,392.29a95.3,95.3,0,0,1-134.12-13.36c-1.35-1.65-2.64-3.32-3.85-5a95.31,95.31,0,0,0,147.16-120.5q2.14,2.29,4.17,4.77A95.3,95.3,0,0,1,1281.48,392.29Z"/><path class="cls-5" d="M983.72,605.05A95.3,95.3,0,0,1,849.6,591.69c-1.35-1.65-2.63-3.32-3.85-5a95.31,95.31,0,0,0,147.16-120.5c1.43,1.53,2.83,3.12,4.17,4.77A95.3,95.3,0,0,1,983.72,605.05Z"/><circle class="cls-2" cx="151.75" cy="122.09" r="122.07"/><path class="cls-6" d="M270.77,149.2a122.09,122.09,0,0,1-231.44,21A122.08,122.08,0,0,0,243.75,42.24,121.89,121.89,0,0,1,270.77,149.2Z"/></g></g></svg>