<svg xmlns="http://www.w3.org/2000/svg" viewBox="0 0 767.24 731.73"><defs><style>.cls-1{opacity:0.46;}.cls-2{fill:#fff;}.cls-2,.cls-3,.cls-5{stroke:#000;}.cls-2,.cls-3,.cls-5,.cls-6{stroke-miterlimit:10;}.cls-2,.cls-3{stroke-width:2px;}.cls-2,.cls-3,.cls-4{opacity:0.5;}.cls-3{fill:none;}.cls-5{fill:#999;}.cls-5,.cls-6{stroke-width:4px;}.cls-6{fill:#b4f5ff;stroke:#0071bc;opacity:0.61;}</style></defs><title>radargraph</title><g id="Layer_2" data-name="Layer 2"><g id="Layer_1-2" data-name="Layer 1"><g class="cls-1"><polygon class="cls-2" points="383.62 1.24 1.18 279.1 147.26 728.69 619.98 728.69 766.06 279.1 383.62 1.24"/><polygon class="cls-2" points="383.62 66.19 63.9 298.48 186.02 674.33 581.22 674.33 703.34 298.48 383.62 66.19"/><polygon class="cls-2" points="383.62 130.94 126.43 317.8 224.67 620.14 542.57 620.14 640.8 317.8 383.62 130.94"/><polygon class="cls-2" points="383.62 195.63 188.91 337.1 263.28 565.99 503.95 565.99 578.33 337.1 383.62 195.63"/><polygon class="cls-2" points="383.62 260.91 251.94 356.58 302.24 511.37 465 511.37 515.29 356.58 383.62 260.91"/><polygon class="cls-2" points="383.62 327.74 315.5 377.23 341.52 457.3 425.72 457.3 451.73 377.23 383.62 327.74"/><line class="cls-3" x1="1.18" y1="279.1" x2="383.62" y2="396.52"/><line class="cls-3" x1="383.62" y1="1.24" x2="383.62" y2="396.52"/><line class="cls-3" x1="766.06" y1="279.1" x2="383.62" y2="396.52"/><line class="cls-3" x1="619.98" y1="728.69" x2="383.62" y2="396.52"/><line class="cls-3" x1="147.26" y1="728.69" x2="383.62" y2="396.52"/></g></g><g id="Layer_2-2" data-name="Layer 2"><g class="cls-4"><polygon class="cls-5" points="383.62 66.19 640.8 317.8 619.98 728.69 263.28 565.99 63.9 298.48 383.62 66.19"/></g></g><g id="Layer_3" data-name="Layer 3"><polygon class="cls-6" points="147.26 728.69 542.57 620.14 703.34 298.48 383.62 195.63 188.91 337.1 147.26 728.69"/></g></g></svg>