<svg xmlns="http://www.w3.org/2000/svg" viewBox="0 0 1343.5 706.19"><defs><style>.cls-1{stroke:#000;stroke-miterlimit:10;}.cls-2{fill:#e90000;}.cls-3{fill:#fff;}.cls-4{fill:#1e1e1e;}.cls-5{opacity:0.15;}.cls-6{opacity:0.4;}.cls-7{opacity:0.1;}.cls-8{opacity:0;}</style></defs><title>fightstick active_1</title><g id="Layer_2" data-name="Layer 2"><g id="Layer_1-2" data-name="Layer 1"><circle class="cls-1" cx="502.35" cy="224.95" r="121.88"/><circle class="cls-2" cx="502.35" cy="224.95" r="95.31"/><circle class="cls-1" cx="442.63" cy="490.19" r="121.88"/><circle class="cls-2" cx="442.63" cy="490.19" r="95.31"/><circle class="cls-1" cx="745.51" cy="211.47" r="121.87"/><circle class="cls-2" cx="745.51" cy="211.47" r="95.31"/><circle class="cls-1" cx="685.79" cy="476.71" r="121.88"/><circle class="cls-2" cx="685.79" cy="476.71" r="95.31"/><circle class="cls-1" cx="983.3" cy="265.01" r="121.87"/><circle class="cls-3" cx="983.3" cy="265.01" r="95.31"/><circle class="cls-1" cx="923.58" cy="530.25" r="121.87"/><circle class="cls-3" cx="923.58" cy="530.25" r="95.31"/><circle class="cls-1" cx="1221.1" cy="318.55" r="121.87"/><circle class="cls-4" cx="1221.1" cy="318.55" r="95.31"/><circle class="cls-1" cx="1161.38" cy="583.79" r="121.87"/><circle class="cls-4" cx="1161.38" cy="583.79" r="95.31"/><circle cx="113.66" cy="291.24" r="113.64"/><circle class="cls-4" cx="113.66" cy="291.24" r="90.6"/><path d="M115.83,154.74h70.82a0,0,0,0,1,0,0V290.23a35.41,35.41,0,0,1-35.41,35.41h0a35.41,35.41,0,0,1-35.41-35.41V154.74A0,0,0,0,1,115.83,154.74Z" transform="translate(203.35 -38.82) rotate(42.78)"/><path class="cls-5" d="M503,563.93a95.3,95.3,0,0,1-134.12-13.36q-2-2.48-3.85-5A95.31,95.31,0,0,0,512.2,425c1.43,1.53,2.82,3.11,4.17,4.76A95.31,95.31,0,0,1,503,563.93Z"/><circle class="cls-5" cx="225.48" cy="249.48" r="109.22"/><circle class="cls-6" cx="502.35" cy="224.95" r="95.33"/><path class="cls-7" d="M523.3,132a95.33,95.33,0,1,0,72.06,113.94A95.32,95.32,0,0,0,523.3,132Zm66,112.58A89.13,89.13,0,1,1,521.93,138,89.14,89.14,0,0,1,589.31,244.53Z"/><circle class="cls-6" cx="983.3" cy="265.01" r="95.33"/><path class="cls-7" d="M1004.25,172A95.33,95.33,0,1,0,1076.31,286,95.32,95.32,0,0,0,1004.25,172Zm66,112.58a89.13,89.13,0,1,1-67.38-106.54A89.14,89.14,0,0,1,1070.26,284.59Z"/><circle class="cls-6" cx="1221.1" cy="318.55" r="95.33"/><path class="cls-7" d="M1242.05,225.55a95.33,95.33,0,1,0,72.06,113.94A95.32,95.32,0,0,0,1242.05,225.55Zm66,112.58a89.13,89.13,0,1,1-67.38-106.54A89.14,89.14,0,0,1,1308.06,338.13Z"/><circle class="cls-6" cx="685.79" cy="476.71" r="95.33"/><path class="cls-7" d="M706.73,383.7a95.33,95.33,0,1,0,72.06,113.94A95.32,95.32,0,0,0,706.73,383.7Zm66,112.58a89.13,89.13,0,1,1-67.38-106.54A89.14,89.14,0,0,1,772.74,496.28Z"/><path class="cls-5" d="M805.89,285.21a95.31,95.31,0,0,1-134.13-13.36c-1.35-1.65-2.63-3.32-3.85-5a95.31,95.31,0,0,0,147.16-120.5q2.16,2.3,4.18,4.77A95.31,95.31,0,0,1,805.89,285.21Z"/><path class="cls-5" d="M1221.52,658.59a95.3,95.3,0,0,1-134.12-13.36c-1.35-1.64-2.64-3.32-3.85-5a95.31,95.31,0,0,0,147.16-120.5q2.14,2.29,4.17,4.77A95.3,95.3,0,0,1,1221.52,658.59Z"/><path class="cls-5" d="M983.72,605.05A95.3,95.3,0,0,1,849.6,591.69c-1.35-1.65-2.63-3.32-3.85-5a95.31,95.31,0,0,0,147.16-120.5c1.43,1.53,2.83,3.12,4.17,4.77A95.3,95.3,0,0,1,983.72,605.05Z"/><circle class="cls-2" cx="225.48" cy="159.95" r="122.07"/><path class="cls-7" d="M339.41,203.14a122.09,122.09,0,0,1-232.1-11.6,122.08,122.08,0,0,0,220.3-98.09A121.87,121.87,0,0,1,339.41,203.14Z"/><g id="aligner" class="cls-8"><circle cx="113.66" cy="291.24" r="113.64"/><circle cx="151.75" cy="122.09" r="122.07"/></g></g></g></svg>